<svg role="img" viewBox="0 0 512 512" xmlns="http://www.w3.org/2000/svg" id="Drizzle--Streamline-Simple-Icons" height="512" width="512">
  <desc>
    Drizzle Streamline Icon: https://streamlinehq.com
  </desc>
  <title>Drizzle</title>
  <path d="M114.19733333333332 252.224a22.101333333333333 22.101333333333333 0 0 0 -8.426666666666666 -30.336 22.67733333333333 22.67733333333333 0 0 0 -30.656 8.512L2.944 356.30933333333337a22.08 22.08 0 0 0 8.426666666666666 30.336 22.67733333333333 22.67733333333333 0 0 0 30.656 -8.490666666666666l72.17066666666666 -125.93066666666665Zm239.27466666666663 0a22.101333333333333 22.101333333333333 0 0 0 -8.405333333333333 -30.336 22.698666666666668 22.698666666666668 0 0 0 -30.67733333333333 8.512l-72.14933333333333 125.90933333333334a22.101333333333333 22.101333333333333 0 0 0 8.405333333333333 30.336c10.794666666666666 6.037333333333333 24.53333333333333 2.2186666666666666 30.67733333333333 -8.490666666666666l72.14933333333333 -125.93066666666665Zm155.584 -96.53333333333333a22.101333333333333 22.101333333333333 0 0 0 -8.426666666666666 -30.336 22.656 22.656 0 0 0 -30.656 8.512l-72.17066666666666 125.90933333333334a22.101333333333333 22.101333333333333 0 0 0 8.426666666666666 30.336 22.67733333333333 22.67733333333333 0 0 0 30.656 -8.512l72.17066666666666 -125.90933333333334Zm-239.33866666666665 0a22.08 22.08 0 0 0 -8.405333333333333 -30.336 22.698666666666668 22.698666666666668 0 0 0 -30.67733333333333 8.490666666666666l-72.14933333333333 125.93066666666665a22.101333333333333 22.101333333333333 0 0 0 8.405333333333333 30.336c10.794666666666666 6.015999999999999 24.53333333333333 2.2186666666666666 30.67733333333333 -8.512l72.14933333333333 -125.90933333333334Z" fill="#000000" stroke-width="21.3333"></path>
</svg>