<svg xmlns="http://www.w3.org/2000/svg" fill="none" viewBox="0 0 480 480" id="Fastapi--Streamline-Svg-Logos" height="480" width="480">
  <desc>
    Fastapi Streamline Icon: https://streamlinehq.com
  </desc>
  <path fill="#009688" d="M48.40695 196.59300000000002C24.44175 196.59300000000002 5 216.035 5 240s19.44175 43.407 43.40695 43.407c23.965049999999998 0 43.406549999999996 -19.442 43.406549999999996 -43.407s-19.4415 -43.407 -43.406549999999996 -43.407ZM46.145199999999996 274.795v-27.227H31.0094l21.747100000000003 -42.363v27.227h14.57L46.145199999999996 274.795Z" opacity=".98" stroke-width="5"></path>
  <path fill="#009688" d="M126.4795 277.211V202.2495h45.214999999999996v8.978h-34.7225v22.607499999999998H167.8v8.870000000000001h-30.828000000000003v34.506h-10.4925Zm70.9945 -7.2475000000000005 1.544 -0.0055000000000000005c1.7510000000000001 -0.0125 3.3274999999999997 -0.0465 4.7299999999999995 -0.10250000000000001 1.875 -0.1445 3.4255000000000004 -0.3605 4.651 -0.649V252.44c-0.721 -0.3605 -1.911 -0.649 -3.5694999999999997 -0.8655 -1.5865 -0.288 -3.5335 -0.4325 -5.840999999999999 -0.4325 -1.5145 0 -3.1369999999999996 0.10800000000000001 -4.8675 0.3245 -1.6585 0.2165 -3.209 0.685 -4.6515 1.4064999999999999 -1.37 0.649 -2.524 1.5865 -3.4615 2.8120000000000003 -0.9375 1.154 -1.4060000000000001 2.7045000000000003 -1.4060000000000001 4.6515 0 3.6054999999999997 1.154 6.1295 3.4615 7.572 2.3075 1.37 5.4445 2.0549999999999997 9.4105 2.0549999999999997Zm-0.8655 -50.407000000000004c3.786 0 7.0015 0.47550000000000003 9.647 1.4260000000000002l0.521 0.1965c2.625 0.9425 4.7475000000000005 2.293 6.367500000000001 4.052l0.33899999999999997 0.383c1.731 1.875 2.9570000000000003 4.1465000000000005 3.678 6.8149999999999995 0.721 2.596 1.0815 5.4805 1.0815 8.6535v35.155l-1.947 0.3375c-0.519 0.092 -1.096 0.196 -1.7305000000000001 0.3115l-1.1765 0.16199999999999998c-1.217 0.1625 -2.5555 0.3245 -4.016 0.487 -1.947 0.21600000000000003 -4.074 0.39649999999999996 -6.382 0.5405 -2.2355 0.2165 -4.471 0.3245 -6.7065 0.3245 -3.1725 0 -6.0935 -0.3245 -8.7615 -0.9735 -2.6679999999999997 -0.649 -4.976 -1.6585 -6.923 -3.0285 -1.947 -1.4425 -3.4610000000000003 -3.317 -4.543 -5.625 -1.0815 -2.3075 -1.6225 -5.084 -1.6225 -8.329 0 -3.1005 0.613 -5.769 1.839 -8.0045 1.298 -2.2355 3.0285 -4.038 5.192 -5.4085 2.1635 -1.37 4.6875 -2.3795 7.572 -3.0285 2.8845 -0.649 5.913 -0.9735 9.086 -0.9735 1.0095 0 2.0555000000000003 0.072 3.1369999999999996 0.21600000000000003 1.0815 0.07250000000000001 2.0915 0.2165 3.029 0.433l0.9615 0.144c0.4565 0.072 0.877 0.1445 1.262 0.2165l1.471 0.3c0.16899999999999998 0.0375 0.3075 0.06949999999999999 0.4155 0.0965v-2.8125c0 -1.6585 -0.18 -3.281 -0.5405 -4.8675 -0.3605 -1.6585 -1.0095 -3.101 -1.947 -4.326499999999999 -0.9375 -1.2985 -2.2355 -2.308 -3.8945000000000003 -3.029 -1.5865 -0.7929999999999999 -3.6775 -1.19 -6.273499999999999 -1.19 -3.041 0 -5.7485 0.212 -8.1225 0.6365l-1.6525 0.3085c-1.9514999999999998 0.37949999999999995 -3.4525 0.786 -4.5035 1.2185l-1.19 -8.329c1.298 -0.577 3.4615 -1.1179999999999999 6.4905 -1.6225 2.7255000000000003 -0.5195000000000001 5.656 -0.805 8.791 -0.8565l1.052 -0.009Zm51.325 50.407000000000004c4.1105 0 7.138999999999999 -0.541 9.086 -1.6225 2.0195 -1.0815 3.029 -2.8125 3.029 -5.192 0 -2.452 -0.9735 -4.399 -2.9204999999999997 -5.8415 -1.947 -1.442 -5.156 -3.0645 -9.627 -4.8675 -2.1635 -0.8655 -4.255 -1.7305000000000001 -6.273999999999999 -2.596 -1.947 -0.9375 -3.6420000000000003 -2.019 -5.084 -3.245 -1.4425 -1.226 -2.596 -2.7045000000000003 -3.4615 -4.4350000000000005 -0.8655 -1.7305000000000001 -1.298 -3.8579999999999997 -1.298 -6.382 0 -4.976 1.839 -8.905999999999999 5.5165 -11.7905 3.678 -2.9565 8.69 -4.4350000000000005 15.035499999999999 -4.4350000000000005 1.5865 0 3.173 0.1085 4.7595 0.3245 1.5865 0.1445 3.065 0.3605 4.4350000000000005 0.649 1.1745 0.1855 2.2165 0.3975 3.126 0.636l1.2075 0.33099999999999996c0.717 0.2025 1.2914999999999999 0.385 1.724 0.5475l-1.839 8.6535c-1.0815 -0.577 -2.7760000000000002 -1.154 -5.084 -1.7305000000000001 -2.3075 -0.649 -5.0835 -0.9735 -8.329 -0.9735 -2.8120000000000003 0 -5.263999999999999 0.5765 -7.3555 1.7305000000000001 -2.091 1.0815 -3.1365 2.8125 -3.1365 5.192 0 1.226 0.21600000000000003 2.308 0.649 3.245 0.5045000000000001 0.9375 1.2255 1.803 2.163 2.5965 1.01 0.721 2.2355 1.4060000000000001 3.678 2.0549999999999997 1.442 0.649 3.173 1.3339999999999999 5.192 2.0549999999999997 2.6679999999999997 1.01 5.048 2.0195 7.138999999999999 3.029 2.0915 0.9375 3.8585000000000003 2.0549999999999997 5.3005 3.3529999999999998 1.5145 1.2985 2.6679999999999997 2.8845 3.4615 4.7595 0.7929999999999999 1.803 1.19 4.0385 1.19 6.7065 0 5.1925 -1.947 9.1225 -5.8415 11.7905 -3.822 2.6685 -9.3025 4.0024999999999995 -16.4415 4.0024999999999995 -4.727 0 -8.478 -0.3905 -11.252500000000001 -1.1715l-2.2655 -0.6565c-1.826 -0.542 -3.1254999999999997 -0.978 -3.8975 -1.309l1.839 -8.6535 1.382 0.5045000000000001c1.0739999999999998 0.385 2.452 0.8655 4.1345 1.4425 2.3755 0.8145 5.486 1.2454999999999998 9.3305 1.2934999999999999l0.7295 0.0045Zm44.4915 -49.0005h21.309V229.4H292.425v25.9605c0 2.8125 0.21600000000000003 5.156 0.649 7.031 0.4325 1.803 1.0815 3.2455 1.947 4.327 0.8655 1.0095 1.947 1.7305000000000001 3.245 2.1635 1.298 0.4325 2.8125 0.649 4.543 0.649 3.029 0 5.4445 -0.3245 7.2475000000000005 -0.9735l3.894 -1.5145 1.947 8.329c-1.0095 0.505 -2.7760000000000002 1.1179999999999999 -5.300000000000001 1.839 -2.524 0.7929999999999999 -5.4085 1.1895 -8.6535 1.1895 -3.822 0 -6.995 -0.4685 -9.519 -1.4060000000000001 -2.452 -1.0095 -4.4350000000000005 -2.488 -5.9495 -4.4350000000000005 -1.5145 -1.947 -2.596 -4.326499999999999 -3.245 -7.138999999999999 -0.577 -2.8845 -0.8655 -6.202 -0.8655 -9.9515V205.278l10.06 -1.7305000000000001v17.415499999999998Zm84.842 56.248c-1.226 -3.245 -2.38 -6.418 -3.4615 -9.519 -1.082 -3.173 -2.1995 -6.382 -3.3535 -9.627h-33.965l-6.8145 19.146h-10.9255l2.4285 -6.649000000000001c1.3905 -3.7915 2.7365 -7.429 4.037 -10.9135l3.1530000000000005 -8.42c1.996 -5.307500000000001 3.946 -10.384 5.85 -15.229999999999999 2.1795 -5.3845 4.3305 -10.541 6.4525 -15.4695l0.795 -1.8379999999999999c2.3795 -5.5525 4.8675 -11.033 7.4635 -16.4415h9.627c2.1635 4.507 4.2515 9.064 6.265 13.671500000000002l1.1985 2.7700000000000005c2.38 5.481 4.7595 11.25 7.1395 17.3075 2.2065 5.4515 4.4425 11.195500000000001 6.7075 17.231l2.4035 6.4190000000000005c2.044 5.4755 4.199 11.33 6.4655 17.5625h-11.466000000000001Zm-9.843499999999999 -27.7995c-2.3075 -6.273999999999999 -4.6155 -12.3315 -6.923 -18.1725 -2.2355 -5.913500000000001 -4.579 -11.574 -7.031 -16.9825 -2.524 5.4085 -4.9395 11.068999999999999 -7.2475000000000005 16.9825 -2.2355 5.840999999999999 -4.471 11.8985 -6.7065 18.1725h27.908Zm51.284 -47.919c10.2515 0 18.1785 1.914 23.781 5.742500000000001l0.449 0.315c5.697 3.966 8.5455 9.9155 8.5455 17.8475 0 4.327 -0.7935000000000001 8.041 -2.38 11.1415 -1.514 3.029 -3.7495000000000003 5.5169999999999995 -6.7065 7.4639999999999995 -2.8845 1.875 -6.418 3.245 -10.6005 4.1105 -4.1825 0.865 -8.905999999999999 1.298 -14.17 1.298h-8.329v27.7995h-10.4925v-73.88c2.9565 -0.721 6.237500000000001 -1.1895 9.843499999999999 -1.4060000000000001 3.31 -0.2595 6.357 -0.4025 9.141 -0.4285l0.9185 -0.004Zm0.8655 9.193999999999999 -2.0395 0.008499999999999999c-3.487 0.0285 -6.2325 0.134 -8.2365 0.31600000000000006v29.4225h7.896c3.606 0 6.851000000000001 -0.2165 9.7355 -0.649 2.8845 -0.505 5.300000000000001 -1.2985 7.2475000000000005 -2.38 2.019 -1.154 3.5694999999999997 -2.7039999999999997 4.651 -4.651 1.0815 -1.9475 1.6225 -4.4350000000000005 1.6225 -7.4639999999999995 0 -2.7039999999999997 -0.507 -4.9645 -1.5210000000000001 -6.7815l-0.2095 -0.3575c-1.082 -1.875 -2.596 -3.3535 -4.543 -4.4350000000000005 -1.875 -1.154 -4.0745 -1.947 -6.5985000000000005 -2.38 -2.524 -0.4325 -5.192 -0.649 -8.0045 -0.649Zm44.936 -8.437h10.491999999999999v74.9615h-10.491999999999999V202.2495Z" stroke-width="5"></path>
</svg>