<svg xmlns="http://www.w3.org/2000/svg" fill="none" viewBox="0 0 480 480" id="React-Query-Icon--Streamline-Svg-Logos" height="480" width="480">
  <desc>
    React Query Icon Streamline Icon: https://streamlinehq.com
  </desc>
  <path fill="#00435b" d="m295.04200000000003 291.10900000000004 -9.015 15.655c-2.716 4.7155000000000005 -7.7435 7.622 -13.185500000000001 7.622H203.77849999999998c-5.442 0 -10.4695 -2.9065000000000003 -13.185500000000001 -7.622l-9.016 -15.655h113.465Zm25.238999999999997 -43.824 -15.8965 27.601499999999998h-132.15l-15.8955 -27.601499999999998h163.942Zm-15.3125 -42.8545 15.338000000000001 26.633H156.3135l15.337499999999999 -26.633h133.3175Zm-32.126999999999995 -40.512c5.442 0 10.4695 2.9065000000000003 13.185500000000001 7.622l9.599 16.6675H180.9935l9.599499999999999 -16.6675c2.716 -4.7155000000000005 7.7435 -7.622 13.185500000000001 -7.622h69.063Z" stroke-width="5"></path>
  <path fill="#002b3b" d="M103.2645 156.6565c-7.6505 -37.097 -9.292 -65.55 -4.3469999999999995 -86.2105 2.941 -12.287999999999998 8.318 -22.3123 16.494500000000002 -29.544649999999997 8.632 -7.6354500000000005 19.5455 -11.382200000000001 31.808 -11.382200000000001 20.23 0 41.496 9.225 64.223 26.74985 9.27 7.1485 18.891 15.764499999999998 28.8825 25.853 0.7955 -1.024 1.6945 -1.9894999999999998 2.696 -2.882 28.2485 -25.1735 52.031 -40.8138 72.3725 -46.8443 12.095 -3.5857 23.451 -3.92735 33.792 -0.44725000000000004 10.9155 3.67345 19.613 11.26695 25.749499999999998 21.90305 10.126999999999999 17.5535 12.7975 40.619 9.022 69.0985 -1.5390000000000001 11.6085 -4.17 24.253999999999998 -7.887499999999999 37.955 1.4025 0.16949999999999998 2.8085 0.48050000000000004 4.2005 0.9415 35.841 11.876999999999999 61.22 24.6495 76.58500000000001 39.246500000000005 9.142 8.6845 15.1115 18.352999999999998 17.2695 29.0555 2.278 11.2965 0.057 22.6275 -6.071999999999999 33.2555 -10.1085 17.528 -28.6945 31.3525 -55.172999999999995 42.302 -10.632 4.3965 -22.6615 8.378499999999999 -36.102 11.959999999999999 0.6135 1.3844999999999998 1.089 2.8549999999999995 1.4074999999999998 4.398000000000001 7.6505 37.0965 9.292 65.5495 4.3469999999999995 86.2105 -2.941 12.287999999999998 -8.3185 22.311999999999998 -16.494500000000002 29.5445 -8.632 7.6354999999999995 -19.5455 11.382000000000001 -31.8085 11.382000000000001 -20.229499999999998 0 -41.496 -9.225 -64.223 -26.75 -9.3685 -7.224 -19.0955 -15.947499999999998 -29.2015 -26.175 -1.04 1.6264999999999998 -2.3165 3.1380000000000003 -3.8265 4.484 -28.2485 25.173000000000002 -52.031 40.8135 -72.3725 46.844 -12.095 3.5854999999999997 -23.451 3.927 -33.792 0.44699999999999995 -10.9155 -3.6735 -19.613 -11.267 -25.749499999999998 -21.903000000000002 -10.126999999999999 -17.5535 -12.7975 -40.6185 -9.022 -69.0985 1.5945 -12.028 4.3614999999999995 -25.1695 8.2945 -39.445 -1.537 -0.1555 -3.081 -0.48050000000000004 -4.6075 -0.9865 -35.841 -11.877500000000001 -61.21995 -24.65 -76.5851 -39.246500000000005 -9.14185 -8.6845 -15.111600000000001 -18.352999999999998 -17.2696 -29.0555 -2.277815 -11.2965 -0.0568 -22.6275 6.0724 -33.2555 10.10835 -17.528 28.69455 -31.3525 55.1728 -42.302 10.949 -4.528 23.3795 -8.6155 37.307 -12.279 -0.496 -1.2149999999999999 -0.888 -2.492 -1.1625 -3.8229999999999995Z" stroke-width="5"></path>
  <path fill="#ff4154" d="M353.1785 325.709c3.564 -0.6315 6.9784999999999995 1.6535 7.7745 5.1585l0.0435 0.20750000000000002 0.38 1.9725000000000001c12.318499999999998 64.7655 3.641 97.1485 -26.033499999999997 97.1485 -29.033 0 -65.99199999999999 -27.631999999999998 -110.8765 -82.89699999999999 -0.992 -1.221 -1.5270000000000001 -2.7495000000000003 -1.5135 -4.3225 0.0325 -3.6645 2.973 -6.6225000000000005 6.6115 -6.702l0.2105 -0.001 2.3635 0.0165c18.888 0.10250000000000001 37.249500000000005 -0.5559999999999999 55.084999999999994 -1.9755 21.054 -1.6755 43.038999999999994 -4.5440000000000005 65.955 -8.605500000000001Zm-203.791 -48.9565 0.1135 0.19199999999999998 1.186 2.07c9.5045 16.5235 19.407 32.2065 29.707 47.04900000000001 12.1305 17.479499999999998 25.7715 35.1745 40.9235 53.08500000000001 2.344 2.771 2.076 6.8835 -0.5680000000000001 9.3295l-0.172 0.154 -1.525 1.312c-50.132000000000005 42.9555 -82.71549999999999 51.5305 -97.7515 25.726 -14.7175 -25.2585 -9.3815 -71.18599999999999 16.008 -137.782 0.558 -1.4635 1.6064999999999998 -2.6879999999999997 2.9665000000000004 -3.464 3.1790000000000003 -1.8145 7.2095 -0.767 9.112 2.3285ZM378.61800000000005 181.185l0.2055 0.067 1.887 0.6515C442.59000000000003 203.429 466.1 227.085 451.2395 252.87099999999998c-14.534 25.219 -56.785500000000006 43.581 -126.755 55.085499999999996 -1.5605 0.2565 -3.1614999999999998 -0.041999999999999996 -4.5245 -0.8434999999999999 -3.2195 -1.8925 -4.2955 -6.037 -2.4025 -9.257 10.021500000000001 -17.047 19.0475 -34.009 27.0775 -50.88549999999999 9.1075 -19.1405 17.654 -39.685 25.64 -61.633500000000005 1.211 -3.328 4.7675 -5.1354999999999995 8.137 -4.212l0.20600000000000002 0.06Zm-218.58100000000002 -10.8375c3.2195 1.8925 4.2955 6.037 2.4025 9.257 -10.021500000000001 17.047 -19.0475 34.009 -27.0775 50.885999999999996 -9.1075 19.14 -17.654 39.6845 -25.64 61.633500000000005 -1.2355 3.3955 -4.914 5.208 -8.343 4.1515l-0.2055 -0.067 -1.887 -0.6515C37.4068 274.0315 13.89705 250.3755 28.757350000000002 224.59c14.53385 -25.2195 56.78565 -43.581500000000005 126.75515000000001 -55.086000000000006 1.5605 -0.2565 3.161 0.041999999999999996 4.5245 0.8434999999999999Zm198.659 -106.021c14.7175 25.2585 9.3815 71.18599999999999 -16.008 137.782 -0.558 1.4635 -1.6064999999999998 2.6879999999999997 -2.9665000000000004 3.4644999999999997 -3.1790000000000003 1.814 -7.2095 0.7665 -9.112 -2.3289999999999997l-0.1135 -0.19199999999999998 -1.186 -2.07c-9.5045 -16.5235 -19.407 -32.2065 -29.707 -47.04900000000001 -12.1305 -17.479 -25.7715 -35.1745 -40.9235 -53.08500000000001 -2.344 -2.771 -2.0765000000000002 -6.8835 0.5680000000000001 -9.3295l0.172 -0.154 1.5245 -1.312C311.076 47.097249999999995 343.65999999999997 38.522 358.69599999999997 64.3265ZM147.1895 48.9551c29.0335 0 65.99249999999999 27.6324 110.877 82.8969 0.992 1.221 1.5270000000000001 2.7495000000000003 1.5135 4.3225 -0.0325 3.6645 -2.973 6.6225000000000005 -6.6115 6.702l-0.2105 0.0014999999999999998 -2.3635 -0.016999999999999998c-18.888 -0.10250000000000001 -37.249500000000005 0.5559999999999999 -55.084999999999994 1.9755 -21.054 1.676 -43.038999999999994 4.5445 -65.955 8.605500000000001 -3.564 0.6315 -6.978999999999999 -1.653 -7.7745 -5.158l-0.0435 -0.208 -0.38 -1.9725000000000001c-12.318999999999999 -64.7655 -3.641 -97.14840000000001 26.033 -97.14840000000001Z" stroke-width="5"></path>
  <path fill="#ffd94c" d="M209.328 164.768h57.971500000000006c8.478 0 16.3085 4.5345 20.528499999999998 11.8875l29.108 50.719500000000004c4.1875 7.2965 4.1875 16.267 0 23.563000000000002l-29.108 50.719500000000004c-4.22 7.353 -12.0505 11.8875 -20.528499999999998 11.8875H209.328c-8.478 0 -16.3085 -4.5345 -20.528499999999998 -11.8875l-29.1085 -50.719500000000004c-4.187 -7.296 -4.187 -16.2665 0 -23.563000000000002l29.1085 -50.719500000000004c4.22 -7.353 12.0505 -11.8875 20.528499999999998 -11.8875Zm49.135999999999996 15.3085c8.4825 0 16.3165 4.539000000000001 20.5345 11.8985l20.298 35.411c4.179 7.2905 4.179 16.250500000000002 0 23.540999999999997l-20.298 35.411500000000004c-4.218 7.359 -12.052 11.8985 -20.5345 11.8985h-40.301c-8.4825 0 -16.316 -4.5395 -20.5345 -11.8985l-20.298 -35.411500000000004c-4.179 -7.2905 -4.179 -16.250500000000002 0 -23.540999999999997l20.298 -35.411c4.2185 -7.3595 12.052 -11.8985 20.5345 -11.8985h40.301Zm-9.5235 16.743h-21.253999999999998c-8.474 0 -16.301000000000002 4.53 -20.522999999999996 11.877500000000001l-10.725999999999999 18.668c-4.195 7.3015 -4.195 16.282 0 23.5835l10.725999999999999 18.6675c4.222 7.3475 12.049000000000001 11.877500000000001 20.522999999999996 11.877500000000001h21.253999999999998c8.474 0 16.3015 -4.53 20.522999999999996 -11.877500000000001l10.725999999999999 -18.6675c4.195 -7.3015 4.195 -16.282 0 -23.5835l-10.725999999999999 -18.668c-4.221500000000001 -7.3475 -12.049000000000001 -11.877500000000001 -20.522999999999996 -11.877500000000001Zm-9.169500000000001 16.026c8.4675 0 16.29 4.523499999999999 20.513499999999997 11.861999999999998l1.5210000000000001 2.642c4.207 7.309 4.207 16.305 0 23.614l-1.5210000000000001 2.642c-4.2235 7.339 -12.046 11.861999999999998 -20.513499999999997 11.861999999999998h-2.915c-8.4675 0 -16.2895 -4.523 -20.513499999999997 -11.861999999999998l-1.5210000000000001 -2.642c-4.207 -7.309 -4.207 -16.305 0 -23.614l1.5210000000000001 -2.642c4.224 -7.3385 12.046 -11.861999999999998 20.513499999999997 -11.861999999999998h2.915Zm-1.4535 15.7865c-3.769 0 -7.2445 2.0060000000000002 -9.126 5.2625 -1.8815000000000002 3.2555 -1.8815000000000002 7.2684999999999995 0 10.524500000000002 1.8815000000000002 3.2560000000000002 5.356999999999999 5.2620000000000005 9.118 5.2620000000000005 3.769 0 7.2445 -2.0060000000000002 9.126 -5.2620000000000005 1.8815000000000002 -3.2560000000000002 1.8815000000000002 -7.269 0 -10.524500000000002 -1.8815000000000002 -3.2565 -5.356999999999999 -5.2625 -9.118 -5.2625Zm-85.388 10.524500000000002h18.9485Z" stroke-width="5"></path>
</svg>