<svg xmlns="http://www.w3.org/2000/svg" fill="none" viewBox="0 0 480 480" id="Stripe--Streamline-Svg-Logos" height="480" width="480">
  <desc>
    Stripe Streamline Icon: https://streamlinehq.com
  </desc>
  <path fill="#635bff" d="M475 243.2645c0 -33.4225 -16.189 -59.7945 -47.1305 -59.7945 -31.0725 0 -49.8725 26.372 -49.8725 59.532999999999994 0 39.2975 22.1945 59.142 54.050000000000004 59.142 15.5365 0 27.2865 -3.525 36.164 -8.486v-26.1115c-8.877500000000001 4.439 -19.061 7.180499999999999 -31.985999999999997 7.180499999999999 -12.664 0 -23.8915 -4.4385 -25.328 -19.844h63.842c0 -1.6975000000000002 0.261 -8.4865 0.261 -11.6195Zm-64.4945 -12.402999999999999c0 -14.7525 9.0085 -20.889000000000003 17.2335 -20.889000000000003 7.964 0 16.45 6.1365 16.45 20.889000000000003h-33.6835ZM327.603 183.47000000000003c-12.7945 0 -21.0195 6.0055000000000005 -25.589 10.183l-1.6975000000000002 -8.094h-28.721999999999998v152.2275l32.639 -6.919499999999999 0.1305 -36.947c4.699999999999999 3.3945 11.6195 8.225 23.108 8.225 23.3695 0 44.65 -18.799999999999997 44.65 -60.186 -0.1305 -37.8615 -21.671999999999997 -58.489000000000004 -44.519000000000005 -58.489000000000004Zm-7.8335 89.9525c-7.702999999999999 0 -12.272499999999999 -2.7415000000000003 -15.4055 -6.136l-0.1305 -48.43600000000001c3.3945 -3.786 8.0945 -6.397500000000001 15.536000000000001 -6.397500000000001 11.880500000000001 0 20.1055 13.317 20.1055 30.4195 0 17.4945 -8.0945 30.55 -20.1055 30.55ZM226.6835 175.767l32.7695 -7.05v-26.5025l-32.7695 6.919499999999999v26.633Zm0 9.9225h32.7695v114.236h-32.7695V185.6895Zm-35.1195 9.661 -2.089 -9.661h-28.2v114.236h32.639V222.50599999999997c7.7025 -10.053 20.758000000000003 -8.225 24.805500000000002 -6.789v-30.027499999999996c-4.178 -1.5670000000000002 -19.453 -4.439 -27.1555 9.661Zm-65.278 -37.9915 -31.8555 6.788499999999999 -0.1305 104.57499999999999c0 19.3225 14.491499999999998 33.553000000000004 33.814 33.553000000000004 10.705499999999999 0 18.539 -1.9585 22.847 -4.3085v-26.5025c-4.1775 1.6969999999999998 -24.805500000000002 7.7025 -24.805500000000002 -11.6195v-46.347500000000004h24.805500000000002v-27.808h-24.805500000000002l0.1305 -28.3305ZM38.03055 218.8505c0 -5.0915 4.1777999999999995 -7.05 11.09725 -7.05 9.9222 0 22.4557 3.0025000000000004 32.3777 8.3555v-30.6805c-10.835999999999999 -4.3085 -21.5415 -6.0055000000000005 -32.3777 -6.0055000000000005C22.625 183.47000000000003 5 197.30899999999997 5 220.41699999999997c0 36.0335 49.611000000000004 30.289 49.611000000000004 45.824999999999996 0 6.0055000000000005 -5.222099999999999 7.964 -12.5332 7.964 -10.83615 0 -24.674999999999997 -4.439 -35.6417 -10.444500000000001v31.0725c12.1417 5.2219999999999995 24.4139 7.4415 35.6417 7.4415 27.1557 0 45.825199999999995 -13.447499999999998 45.825199999999995 -36.8165 -0.131 -38.906 -49.87245 -31.986500000000003 -49.87245 -46.6085Z" stroke-width="5"></path>
</svg>